<svg width="183" height="180" viewBox="0 0 183 180" fill="none" xmlns="http://www.w3.org/2000/svg">
<path d="M117.932 208.872H133.989C140.555 208.872 145.696 204.759 147.278 198.431L150.442 184.588L152.499 183.797L164.602 191.312C170.139 194.792 176.704 193.843 181.371 189.176L192.445 178.102C197.191 173.355 197.982 166.869 194.502 161.411L186.987 149.309L187.778 147.41L201.621 144.167C207.87 142.585 211.983 137.443 211.983 130.878V115.295C211.983 108.729 207.949 103.588 201.621 102.006L187.857 98.6836L187.066 96.627L194.581 84.6035C198.062 79.1455 197.271 72.6592 192.524 67.834L181.45 56.7598C176.862 52.0928 170.297 51.2227 164.76 54.624L152.657 62.0596L150.442 61.2686L147.278 47.3467C145.696 41.0186 140.555 36.9844 133.989 36.9844H117.932C111.287 36.9844 106.146 41.0186 104.643 47.3467L101.479 61.2686L99.2637 62.0596L87.1611 54.624C81.5449 51.2227 75.0586 52.0928 70.4707 56.7598L59.3174 67.834C54.6504 72.6592 53.7803 79.1455 57.2607 84.6035L64.7754 96.627L63.9844 98.6836L50.2998 102.006C43.9717 103.588 39.9375 108.729 39.9375 115.295V130.878C39.9375 137.443 44.0508 142.585 50.2998 144.167L64.1426 147.41L64.8545 149.309L57.3398 161.411C53.8594 166.869 54.7295 173.355 59.3965 178.102L70.5498 189.176C75.1377 193.843 81.7031 194.792 87.2402 191.312L99.3428 183.797L101.479 184.588L104.643 198.431C106.146 204.759 111.287 208.872 117.932 208.872ZM119.988 194.317C118.644 194.317 117.932 193.764 117.773 192.577L113.027 173.118C108.044 171.932 103.219 169.875 99.3428 167.423L82.2568 177.943C81.2285 178.576 80.2793 178.497 79.3301 177.548L71.0244 169.242C70.0752 168.372 70.0752 167.423 70.708 166.395L81.2285 149.309C79.0137 145.512 76.957 140.766 75.7705 135.782L56.2324 131.115C55.0459 130.957 54.4131 130.245 54.4131 128.9V117.193C54.4131 115.77 54.9668 115.216 56.2324 114.899L75.6914 110.312C76.8779 105.012 79.1719 100.107 81.1494 96.5479L70.6289 79.6201C69.9961 78.5127 69.9961 77.5635 70.8662 76.6143L79.251 68.3877C80.2002 67.5176 81.0703 67.3594 82.2568 68.0713L99.1846 78.4336C102.744 76.2188 108.044 74.0039 113.106 72.7383L117.773 53.2793C117.932 52.0928 118.644 51.46 119.988 51.46H131.933C133.277 51.46 133.91 52.0137 134.147 53.2793L138.894 72.8174C144.035 74.083 148.702 76.2188 152.657 78.4336L169.585 68.0713C170.771 67.4385 171.642 67.5176 172.591 68.4668L180.976 76.6934C181.925 77.5635 181.925 78.5127 181.213 79.6201L170.771 96.5479C172.67 100.107 175.043 105.012 176.229 110.312L195.688 114.899C196.954 115.216 197.429 115.77 197.429 117.193V128.9C197.429 130.245 196.875 130.957 195.688 131.115L176.15 135.782C174.964 140.766 172.828 145.591 170.613 149.309L181.134 166.315C181.767 167.423 181.767 168.293 180.817 169.163L172.512 177.548C171.562 178.497 170.613 178.576 169.585 177.943L152.578 167.423C148.623 169.875 144.114 171.853 138.894 173.118L134.147 192.577C133.91 193.764 133.277 194.317 131.933 194.317H119.988ZM126 152.947C142.453 152.947 155.979 139.421 155.979 122.889C155.979 106.515 142.453 92.9883 126 92.9883C109.468 92.9883 95.8623 106.515 95.8623 122.889C95.8623 139.421 109.468 152.947 126 152.947ZM126 139.263C116.982 139.263 109.626 131.906 109.626 122.889C109.626 114.029 117.062 106.673 126 106.673C134.78 106.673 142.137 114.029 142.137 122.889C142.137 131.827 134.78 139.263 126 139.263Z" fill="#3C3C43" fill-opacity="0.2"/>
</svg>
